<svg width="20" height="20" viewBox="0 0 20 20" fill="none" xmlns="http://www.w3.org/2000/svg">
<path d="M1.66669 7.91667V3.33333C1.66669 3.11232 1.75448 2.90036 1.91076 2.74408C2.06704 2.5878 2.27901 2.5 2.50002 2.5H17.5C17.721 2.5 17.933 2.5878 18.0893 2.74408C18.2456 2.90036 18.3334 3.11232 18.3334 3.33333V7.91667C17.7808 7.91667 17.2509 8.13616 16.8602 8.52686C16.4695 8.91756 16.25 9.44747 16.25 10C16.25 10.5525 16.4695 11.0824 16.8602 11.4731C17.2509 11.8638 17.7808 12.0833 18.3334 12.0833V16.6667C18.3334 16.8877 18.2456 17.0996 18.0893 17.2559C17.933 17.4122 17.721 17.5 17.5 17.5H2.50002C2.27901 17.5 2.06704 17.4122 1.91076 17.2559C1.75448 17.0996 1.66669 16.8877 1.66669 16.6667V12.0833C2.21922 12.0833 2.74913 11.8638 3.13983 11.4731C3.53053 11.0824 3.75002 10.5525 3.75002 10C3.75002 9.44747 3.53053 8.91756 3.13983 8.52686C2.74913 8.13616 2.21922 7.91667 1.66669 7.91667ZM11.6667 4.16667H3.33335V6.64C3.95936 6.95025 4.48625 7.42921 4.85461 8.02288C5.22297 8.61656 5.41815 9.30133 5.41815 10C5.41815 10.6987 5.22297 11.3834 4.85461 11.9771C4.48625 12.5708 3.95936 13.0498 3.33335 13.36V15.8333H11.6667V4.16667ZM13.3334 4.16667V15.8333H16.6667V13.36C16.0407 13.0498 15.5138 12.5708 15.1454 11.9771C14.7771 11.3834 14.5819 10.6987 14.5819 10C14.5819 9.30133 14.7771 8.61656 15.1454 8.02288C15.5138 7.42921 16.0407 6.95025 16.6667 6.64V4.16667H13.3334Z" fill="#8696BB"/>
</svg>
