<svg width="35" height="35" viewBox="0 0 35 35" fill="none" xmlns="http://www.w3.org/2000/svg">
<path d="M17.5 33.5417C15.3083 33.5415 13.1673 32.8829 11.3544 31.6512C9.54158 30.4196 8.14055 28.6718 7.33299 26.6343C6.52543 24.5969 6.34859 22.3638 6.8254 20.2246C7.3022 18.0855 8.41067 16.1389 10.0071 14.6373C11.9642 12.7954 16.7708 9.47916 16.0416 2.1875C24.7916 8.02083 29.1666 13.8542 20.4166 22.6042C21.875 22.6042 24.0625 22.6042 27.7083 19.0021C28.1021 20.1294 28.4375 21.3412 28.4375 22.6042C28.4375 25.505 27.2851 28.287 25.234 30.3381C23.1828 32.3893 20.4008 33.5417 17.5 33.5417Z" fill="white"/>
</svg>
