<svg width="20" height="20" viewBox="0 0 20 20" fill="none" xmlns="http://www.w3.org/2000/svg">
<path d="M16.1458 12.5859C16.6865 11.3012 16.811 9.87925 16.5017 8.5201C16.1924 7.16094 15.465 5.9329 14.4216 5.00861C13.3782 4.08433 12.0714 3.51029 10.6849 3.3672C9.29832 3.22412 7.90181 3.51918 6.69166 4.2109L5.86499 2.7634C7.12969 2.04058 8.56182 1.66204 10.0185 1.66555C11.4752 1.66906 12.9055 2.0545 14.1667 2.7834C17.9083 4.9434 19.3417 9.5684 17.5975 13.4251L18.7158 14.0701L15.245 15.9151L15.1075 11.9867L16.1458 12.5859ZM3.85416 7.41424C3.31345 8.69899 3.18898 10.1209 3.49826 11.48C3.80753 12.8392 4.535 14.0672 5.57839 14.9915C6.62177 15.9158 7.92859 16.4898 9.31513 16.6329C10.7017 16.776 12.0982 16.481 13.3083 15.7892L14.135 17.2367C12.8703 17.9596 11.4382 18.3381 9.98149 18.3346C8.52481 18.3311 7.09452 17.9456 5.83332 17.2167C2.09166 15.0567 0.658325 10.4317 2.40249 6.57507L1.28333 5.9309L4.75416 4.0859L4.89166 8.01424L3.85333 7.41507L3.85416 7.41424ZM10.8333 11.2801H13.3333V12.9467H10.8333V14.6134H9.16666V12.9467H6.66666V11.2801H9.16666V10.4467H6.66666V8.78007H8.82166L7.05332 7.01174L8.23333 5.8334L9.99999 7.6009L11.7675 5.8334L12.9467 7.01174L11.1783 8.78007H13.3333V10.4467H10.8333V11.2801Z" fill="#8696BB"/>
</svg>
