<svg width="24" height="24" viewBox="0 0 24 24" fill="none" xmlns="http://www.w3.org/2000/svg">
<path d="M2.80001 5.19996L7.00001 7.99996L11.186 2.13996C11.2785 2.01033 11.4006 1.90467 11.5422 1.83176C11.6838 1.75886 11.8408 1.72083 12 1.72083C12.1593 1.72083 12.3162 1.75886 12.4578 1.83176C12.5994 1.90467 12.7215 2.01033 12.814 2.13996L17 7.99996L21.2 5.19996C21.359 5.09421 21.5449 5.03617 21.7358 5.0327C21.9266 5.02923 22.1145 5.08047 22.2772 5.18038C22.4399 5.28029 22.5706 5.42468 22.6539 5.5965C22.7371 5.76831 22.7694 5.96036 22.747 6.14996L21.104 20.117C21.0753 20.3602 20.9584 20.5845 20.7754 20.7472C20.5923 20.91 20.3559 20.9999 20.111 21H3.88901C3.64407 20.9999 3.40767 20.91 3.22464 20.7472C3.0416 20.5845 2.92466 20.3602 2.89601 20.117L1.25301 6.14896C1.23081 5.95944 1.26329 5.76753 1.34663 5.59588C1.42996 5.42422 1.56067 5.28 1.72332 5.18022C1.88597 5.08044 2.07377 5.02929 2.26455 5.03278C2.45533 5.03628 2.64113 5.09429 2.80001 5.19996ZM12 15C12.5304 15 13.0391 14.7892 13.4142 14.4142C13.7893 14.0391 14 13.5304 14 13C14 12.4695 13.7893 11.9608 13.4142 11.5857C13.0391 11.2107 12.5304 11 12 11C11.4696 11 10.9609 11.2107 10.5858 11.5857C10.2107 11.9608 10 12.4695 10 13C10 13.5304 10.2107 14.0391 10.5858 14.4142C10.9609 14.7892 11.4696 15 12 15Z" fill="white"/>
</svg>
