<svg width="100" height="32" viewBox="0 0 100 32" fill="none" xmlns="http://www.w3.org/2000/svg">
<rect width="100" height="23" rx="5" fill="#FD5E36"/>
<path d="M22 32L15.0718 23H28.9282L22 32Z" fill="#FD5E36"/>
<path d="M16.472 9.664C16.224 9.344 15.68 8.848 15.264 8.496L14.88 8.848C15.296 9.224 15.824 9.744 16.064 10.08L16.472 9.664ZM16.128 14.216V10.808H14.36V11.376H15.552V14.28C15.552 14.632 15.328 14.872 15.176 14.96C15.28 15.08 15.432 15.328 15.488 15.464C15.608 15.312 15.816 15.136 17.152 14.104C17.088 13.992 16.984 13.768 16.944 13.608L16.128 14.216ZM17.952 13.944V13.296H20.448V13.944H17.952ZM20.448 12.264V12.88H17.952V12.264H20.448ZM21.016 11.8H17.392V15.608H17.952V14.376H20.448V14.936C20.448 15.04 20.416 15.072 20.296 15.072C20.2 15.08 19.816 15.08 19.408 15.064C19.48 15.216 19.56 15.432 19.584 15.576C20.152 15.584 20.504 15.576 20.736 15.488C20.952 15.4 21.016 15.248 21.016 14.944V11.8ZM19.488 10.888V10.328H21.168V9.896H19.488V9.392H21.408V8.936H19.488V8.312H18.904V8.936H17.064V9.392H18.904V9.896H17.256V10.328H18.904V10.888H16.824V11.344H21.64V10.888H19.488ZM27.672 14.92C27.368 14.92 27.312 14.88 27.312 14.64V12.296H29.496V11.72H26.296V10.12H28.92V9.552H26.296V8.312H25.704V9.552H24.288C24.4 9.232 24.504 8.92 24.584 8.616L23.984 8.496C23.792 9.328 23.392 10.384 22.84 11.056C22.992 11.12 23.224 11.24 23.36 11.336C23.624 11 23.864 10.576 24.056 10.12H25.704V11.72H22.52V12.296H24.592C24.456 13.608 24.096 14.632 22.408 15.152C22.544 15.264 22.72 15.504 22.784 15.656C24.6 15.024 25.048 13.856 25.208 12.296H26.72V14.64C26.72 15.288 26.896 15.488 27.6 15.488H28.736C29.368 15.488 29.544 15.176 29.608 13.968C29.44 13.928 29.192 13.824 29.056 13.72C29.024 14.752 28.976 14.92 28.688 14.92H27.672ZM32.272 9.472C32.088 9.168 31.672 8.72 31.32 8.416L30.872 8.696C31.224 9.024 31.616 9.488 31.792 9.8L32.272 9.472ZM30.752 15.616H31.336V10.104H30.752V15.616ZM32.768 11.448H35.168V12.392H32.768V11.448ZM34.984 14.392C34.816 14.392 34.784 14.368 34.784 14.2V12.88H35.728V10.952H34.8C35.024 10.616 35.28 10.2 35.496 9.808L34.928 9.664C34.76 10.048 34.456 10.584 34.192 10.952H33.248L33.672 10.744C33.56 10.44 33.28 10.008 33 9.688L32.536 9.904C32.8 10.224 33.064 10.648 33.176 10.952H32.24V12.88H33.128C33.008 13.712 32.712 14.304 31.744 14.64C31.856 14.736 32.016 14.952 32.08 15.08C33.176 14.64 33.528 13.912 33.664 12.88H34.256V14.2C34.256 14.72 34.384 14.864 34.92 14.864H35.648C36.056 14.864 36.208 14.672 36.256 13.904C36.112 13.864 35.896 13.792 35.792 13.704C35.768 14.312 35.752 14.392 35.584 14.392H34.984ZM37.248 8.76H32.824V9.288H36.672V14.88C36.672 14.984 36.64 15.016 36.528 15.016C36.432 15.024 36.096 15.024 35.752 15.016C35.824 15.16 35.896 15.408 35.92 15.56C36.424 15.56 36.76 15.552 36.968 15.456C37.184 15.352 37.248 15.2 37.248 14.88V8.76ZM44.912 11.848C45.096 11.472 45.304 10.872 45.472 10.344L45.088 10.24L45 10.264H43.464V9.552H45.12V9.048H43.464V8.312H42.88V9.048H41.24V9.552H42.88V10.264H40.944V10.784H44.792C44.68 11.128 44.544 11.472 44.44 11.728L44.912 11.848ZM42.984 11.848C42.728 11.616 42.232 11.296 41.824 11.088L41.552 11.384C41.96 11.608 42.456 11.944 42.696 12.192L42.984 11.848ZM40.968 12.112C41.392 12.336 41.896 12.688 42.144 12.936L42.424 12.592C42.184 12.344 41.664 12.008 41.256 11.8L40.968 12.112ZM40.488 9.664C40.232 9.336 39.672 8.848 39.24 8.488L38.864 8.872C39.296 9.248 39.824 9.76 40.088 10.088L40.488 9.664ZM40.08 14.152V10.8H38.352V11.376H39.528V14.28C39.528 14.664 39.288 14.92 39.152 15.032C39.248 15.128 39.4 15.328 39.464 15.456V15.448C39.576 15.28 39.776 15.112 41.024 14.08C40.952 13.968 40.848 13.736 40.792 13.584L40.08 14.152ZM45.544 13.512V12.984H43.6C43.664 12.664 43.68 12.352 43.68 12.056V11.096H43.104V12.04C43.104 12.336 43.088 12.656 43 12.984H40.784V13.512H42.808C42.496 14.12 41.872 14.72 40.648 15.192C40.776 15.296 40.944 15.512 41.016 15.656C42.472 15.064 43.144 14.296 43.44 13.512H45.544ZM43.448 14.136C44.104 14.576 44.888 15.224 45.272 15.64L45.64 15.256C45.256 14.832 44.448 14.224 43.808 13.8L43.448 14.136ZM49.16 9.688C49.024 9.304 48.656 8.728 48.312 8.296L47.768 8.528C48.104 8.968 48.456 9.56 48.584 9.944L49.16 9.688ZM48.912 12.24V12.048V10.52H51.12V12.24H48.912ZM53.56 12.24H51.736V10.52H53.312V9.952H51.52C51.776 9.52 52.048 8.968 52.288 8.488L51.616 8.288C51.448 8.792 51.152 9.464 50.88 9.952H46.752V10.52H48.304V12.04V12.24H46.456V12.816H48.256C48.136 13.696 47.736 14.552 46.472 15.192C46.6 15.304 46.808 15.528 46.896 15.672C48.344 14.928 48.76 13.88 48.872 12.816H51.12V15.616H51.736V12.816H53.56V12.24ZM59.888 13.912C59.6 13.312 58.976 12.32 58.496 11.568L58.024 11.824C58.272 12.216 58.56 12.688 58.808 13.136L56.088 13.416C56.648 12.68 57.208 11.744 57.664 10.8L57.016 10.568C56.592 11.608 55.888 12.712 55.672 12.992C55.464 13.288 55.296 13.496 55.128 13.528C55.208 13.696 55.32 14.008 55.352 14.144C55.584 14.048 55.936 14 59.088 13.648C59.2 13.864 59.304 14.048 59.368 14.216L59.888 13.912ZM56.528 9.496C56.672 9.168 56.824 8.824 56.952 8.488L56.344 8.32C55.88 9.6 55.152 10.92 54.36 11.752C54.52 11.832 54.784 12.024 54.904 12.128C55.368 11.576 55.832 10.864 56.232 10.08H60.736C60.624 13.216 60.488 14.536 60.168 14.816C60.072 14.912 59.96 14.944 59.768 14.936C59.528 14.936 58.888 14.936 58.192 14.88C58.328 15.064 58.416 15.328 58.432 15.512C59 15.544 59.624 15.568 59.96 15.536C60.304 15.512 60.52 15.432 60.736 15.176C61.104 14.744 61.224 13.464 61.36 9.824C61.368 9.744 61.368 9.496 61.368 9.496H56.528ZM67.416 11.616V13.464C67.416 14.056 67.552 14.24 68.152 14.24H68.928C69.424 14.24 69.584 13.984 69.648 12.976C69.48 12.936 69.24 12.84 69.112 12.744C69.096 13.568 69.056 13.688 68.872 13.688H68.232C68.032 13.688 68 13.656 68 13.464V11.616H69.576V11.096H67.408V9.928H69.248V9.408H67.408V8.336H66.816V9.408H65.88C65.984 9.168 66.072 8.92 66.144 8.672L65.576 8.544C65.384 9.248 65.048 9.96 64.624 10.432C64.76 10.496 65.016 10.648 65.12 10.736C65.312 10.512 65.48 10.232 65.64 9.928H66.816V11.096H64.576V11.616H66.008C65.88 12.656 65.56 13.416 64.36 13.84C64.488 13.952 64.648 14.168 64.72 14.312C66.064 13.792 66.448 12.872 66.6 11.616H67.416ZM64.232 9.864C63.984 9.48 63.432 8.944 62.96 8.576L62.504 8.896C62.976 9.28 63.512 9.848 63.744 10.232L64.232 9.864ZM64.024 11.352H62.464V11.912H63.448V14.32C63.112 14.48 62.744 14.768 62.392 15.104L62.784 15.608C63.232 15.112 63.664 14.712 63.96 14.712C64.136 14.712 64.376 14.936 64.688 15.128C65.216 15.432 65.864 15.52 66.792 15.52C67.568 15.52 68.912 15.472 69.528 15.432C69.536 15.264 69.632 14.976 69.704 14.816C68.912 14.904 67.712 14.96 66.8 14.96C65.952 14.96 65.296 14.912 64.8 14.616C64.424 14.4 64.24 14.208 64.024 14.176V11.352ZM75.048 11.976V13.488H72.952V11.976H75.048ZM75.608 14V11.472H72.4V14.576H72.952V14H75.608ZM76.032 10.12H72V10.64H76.032V10.12ZM77.288 8.72H70.728V15.632H71.304V9.288H76.704V14.864C76.704 14.992 76.656 15.04 76.512 15.048C76.376 15.056 75.912 15.056 75.408 15.04C75.504 15.2 75.6 15.456 75.624 15.624C76.312 15.624 76.712 15.608 76.96 15.512C77.2 15.408 77.288 15.232 77.288 14.864V8.72ZM79 15.4C79.408 15.024 79.736 14.432 79.96 13.952L79.464 13.728C79.272 14.192 78.92 14.768 78.52 15.12L79 15.4ZM83.928 12.024H80.104V11.472H83.928V12.024ZM83.928 12.968H80.104V12.416H83.928V12.968ZM84.512 11.064H79.536V13.376H81.544L81.272 13.632C81.712 13.888 82.256 14.264 82.512 14.528L82.88 14.16C82.632 13.928 82.152 13.6 81.736 13.376H84.512V11.064ZM81.464 15.048C81.048 15.048 80.976 15.008 80.976 14.824V13.792H80.392V14.824C80.392 15.392 80.608 15.544 81.416 15.544H82.92C83.56 15.544 83.744 15.328 83.808 14.448C83.656 14.408 83.424 14.328 83.296 14.24C83.256 14.952 83.208 15.048 82.864 15.048H81.464ZM83.92 13.864C84.32 14.296 84.76 14.88 84.936 15.28L85.44 15.024C85.24 14.632 84.792 14.056 84.392 13.656L83.92 13.864ZM83.288 9.384C83.2 9.616 83.056 9.928 82.92 10.176H81.072C81.008 9.944 80.864 9.624 80.72 9.384H83.288ZM83.528 10.176C83.648 9.968 83.776 9.736 83.904 9.488L83.44 9.384H85.032V8.896H82.48C82.384 8.688 82.256 8.432 82.12 8.248L81.544 8.368C81.64 8.528 81.744 8.712 81.824 8.896H78.968V9.384H80.672L80.168 9.496C80.288 9.704 80.392 9.968 80.456 10.176H78.608V10.664H85.44V10.176H83.528Z" fill="white"/>
</svg>
