<svg width="25" height="24" viewBox="0 0 25 24" fill="none" xmlns="http://www.w3.org/2000/svg">
<path d="M12.41 10.87C12.31 10.86 12.19 10.86 12.08 10.87C9.7 10.79 7.81 8.84 7.81 6.44C7.81 3.99 9.79 2 12.25 2C14.7 2 16.69 3.99 16.69 6.44C16.68 8.84 14.79 10.79 12.41 10.87Z" stroke="#465677" stroke-width="1.5" stroke-linecap="round" stroke-linejoin="round"/>
<path d="M7.41 14.56C4.99 16.18 4.99 18.82 7.41 20.43C10.16 22.27 14.67 22.27 17.42 20.43C19.84 18.81 19.84 16.17 17.42 14.56C14.68 12.73 10.17 12.73 7.41 14.56Z" stroke="#465677" stroke-width="1.5" stroke-linecap="round" stroke-linejoin="round"/>
</svg>
