<svg width="22" height="23" viewBox="0 0 22 23" fill="none" xmlns="http://www.w3.org/2000/svg">
<path d="M0.835707 8.66489C0.374675 8.66489 0 8.29022 0 7.82919V3.37208C0 1.51263 1.51263 0 3.37208 0H7.77487C8.2359 0 8.61057 0.374676 8.61057 0.835708C8.61057 1.29674 8.2359 1.67142 7.77487 1.67142H3.37208C2.43469 1.67142 1.67141 2.43469 1.67141 3.37208V7.82919C1.67141 8.29022 1.29674 8.66489 0.835707 8.66489ZM21.1643 8.66489C20.7033 8.66489 20.3286 8.29022 20.3286 7.82919V3.37208C20.3286 2.43469 19.5653 1.67142 18.6279 1.67142H14.2251C13.7641 1.67142 13.3894 1.29674 13.3894 0.835708C13.3894 0.374676 13.7641 0 14.2251 0H18.6279C20.4874 0 22 1.51263 22 3.37208V7.82919C22 8.29022 21.6253 8.66489 21.1643 8.66489ZM7.77487 22.124H3.37208C1.51263 22.124 0 20.6113 0 18.7519V14.2948C0 13.8337 0.374675 13.4591 0.835707 13.4591C1.29674 13.4591 1.67141 13.8337 1.67141 14.2948V18.7519C1.67141 19.6893 2.43469 20.4525 3.37208 20.4525H7.77487C8.2359 20.4525 8.61057 20.8272 8.61057 21.2883C8.61057 21.7493 8.2359 22.124 7.77487 22.124ZM18.6265 22.124H14.2237C13.7627 22.124 13.388 21.7493 13.388 21.2883C13.388 20.8272 13.7627 20.4525 14.2237 20.4525H18.6265C19.5639 20.4525 20.3272 19.6893 20.3272 18.7519V14.2948C20.3272 13.8337 20.7019 13.4591 21.1629 13.4591C21.6239 13.4591 21.9986 13.8337 21.9986 14.2948V18.7519C22 20.6113 20.486 22.124 18.6265 22.124ZM17.0846 12.0077H5.00589C4.54486 12.0077 4.17018 11.633 4.17018 11.172C4.17018 10.711 4.54486 10.3363 5.00589 10.3363H17.0846C17.5457 10.3363 17.9204 10.711 17.9204 11.172C17.9204 11.633 17.5471 12.0077 17.0846 12.0077Z" fill="#465677"/>
</svg>
