<svg width="15" height="15" viewBox="0 0 15 15" fill="none" xmlns="http://www.w3.org/2000/svg">
<path d="M7.5 8.125C8.53562 8.125 9.375 8.96438 9.375 10C9.375 10.5312 9.15438 11.01 8.8 11.3513L7.60625 12.5H9.375V13.75H5.625V12.6725L7.93313 10.4506C8.05188 10.3363 8.125 10.1769 8.125 10C8.125 9.655 7.845 9.375 7.5 9.375C7.155 9.375 6.875 9.655 6.875 10H5.625C5.625 8.96438 6.46438 8.125 7.5 8.125ZM11.25 8.125V10.625H12.5V8.125H13.75V13.75H12.5V11.875H10V8.125H11.25ZM2.5 7.5C2.5 9.07937 3.23187 10.4875 4.375 11.4038V12.9138C2.50687 11.8331 1.25 9.81375 1.25 7.5H2.5ZM7.5 1.25C10.7406 1.25 13.4056 3.71688 13.7188 6.875H12.4613C12.1537 4.40875 10.05 2.5 7.5 2.5C5.78125 2.5 4.265 3.36688 3.36563 4.6875H5V5.9375H1.25V2.1875H2.5V3.75C3.64 2.23125 5.45563 1.25 7.5 1.25Z" fill="white"/>
</svg>
