<svg width="58" height="58" viewBox="0 0 58 58" fill="none" xmlns="http://www.w3.org/2000/svg">
<path d="M29 0.666656C13.36 0.666656 0.666656 13.36 0.666656 29C0.666656 44.64 13.36 57.3333 29 57.3333C44.64 57.3333 57.3333 44.64 57.3333 29C57.3333 13.36 44.64 0.666656 29 0.666656ZM29 9.16666C33.7033 9.16666 37.5 12.9633 37.5 17.6667C37.5 22.37 33.7033 26.1667 29 26.1667C24.2967 26.1667 20.5 22.37 20.5 17.6667C20.5 12.9633 24.2967 9.16666 29 9.16666ZM29 49.4C21.9167 49.4 15.655 45.7733 12 40.2767C12.085 34.6383 23.3333 31.55 29 31.55C34.6383 31.55 45.915 34.6383 46 40.2767C42.345 45.7733 36.0833 49.4 29 49.4Z" fill="#7989AA"/>
</svg>
