<svg width="15" height="13" viewBox="0 0 15 13" fill="none" xmlns="http://www.w3.org/2000/svg">
<path d="M2.34375 8.07236C2.34375 8.82795 2.64007 9.55259 3.16751 10.0869C3.69496 10.6212 4.41033 10.9213 5.15625 10.9213C5.90217 10.9213 6.61754 10.6212 7.14499 10.0869C7.67243 9.55259 7.96875 8.82795 7.96875 8.07236C7.96875 7.31676 7.67243 6.59212 7.14499 6.05783C6.61754 5.52355 5.90217 5.22339 5.15625 5.22339C4.41033 5.22339 3.69496 5.52355 3.16751 6.05783C2.64007 6.59212 2.34375 7.31676 2.34375 8.07236Z" fill="#F4C997"/>
<path d="M13.5938 11.3962H11.2791V9.67258C11.2791 8.74192 10.6678 7.96272 9.8325 7.70014L10.7897 4.56201C10.8209 4.45976 10.8171 4.34984 10.7789 4.25005L9.63047 1.26338L10.4869 0.916281C10.5441 0.893085 10.5962 0.858706 10.6402 0.815107C10.6843 0.771509 10.7195 0.719544 10.7437 0.662181C10.768 0.604817 10.7808 0.543178 10.7816 0.480783C10.7823 0.418388 10.7709 0.356458 10.748 0.29853C10.7251 0.240602 10.6911 0.18781 10.6481 0.143168C10.605 0.0985265 10.5538 0.0629092 10.4971 0.0383501C10.4405 0.0137909 10.3796 0.000770849 10.318 3.32042e-05C10.2564 -0.000704441 10.1953 0.0108548 10.1381 0.034051L7.79437 0.983706C7.73719 1.0069 7.68507 1.04128 7.641 1.08488C7.59693 1.12848 7.56177 1.18044 7.53753 1.23781C7.48856 1.35366 7.48703 1.48447 7.53328 1.60146C7.57953 1.71845 7.66976 1.81204 7.78413 1.86164C7.8985 1.91124 8.02763 1.91278 8.14312 1.86594L8.76047 1.6157L9.84562 4.44045L8.88281 7.59758H8.4C8.29235 6.8483 7.93544 6.15868 7.38831 5.64279C6.84118 5.1269 6.13659 4.81564 5.39109 4.76049L4.25156 3.31749C4.3693 3.31002 4.47983 3.2575 4.56077 3.17057C4.64172 3.08364 4.68702 2.9688 4.6875 2.8493C4.6875 2.72337 4.63811 2.6026 4.55021 2.51355C4.4623 2.4245 4.34307 2.37448 4.21875 2.37448H2.8125C2.68818 2.37448 2.56895 2.4245 2.48104 2.51355C2.39314 2.6026 2.34375 2.72337 2.34375 2.8493C2.34375 2.97524 2.39314 3.09601 2.48104 3.18506C2.56895 3.27411 2.68818 3.32413 2.8125 3.32413H3.05625L4.27922 4.87302C2.895 5.26285 1.875 6.54774 1.875 8.07241C1.875 9.90524 3.34687 11.3962 5.15625 11.3962C6.80625 11.3962 8.17125 10.155 8.4 8.54724H9.23063C9.52515 8.54761 9.8075 8.6663 10.0158 8.87726C10.224 9.08822 10.3412 9.37424 10.3416 9.67258V11.3962H0.46875C0.34443 11.3962 0.225201 11.4462 0.137294 11.5353C0.049386 11.6243 0 11.7451 0 11.871C0 11.997 0.049386 12.1177 0.137294 12.2068C0.225201 12.2958 0.34443 12.3459 0.46875 12.3459H13.5938C13.7181 12.3459 13.8373 12.2958 13.9252 12.2068C14.0131 12.1177 14.0625 11.997 14.0625 11.871C14.0625 11.7451 14.0131 11.6243 13.9252 11.5353C13.8373 11.4462 13.7181 11.3962 13.5938 11.3962ZM5.15625 8.54724H7.45266C7.34396 9.08308 7.0562 9.56458 6.63788 9.91056C6.21957 10.2565 5.69629 10.4458 5.15625 10.4465C3.86391 10.4465 2.8125 9.38151 2.8125 8.07241C2.8125 6.76331 3.86391 5.69827 5.15625 5.69827C5.69629 5.69898 6.21957 5.88828 6.63788 6.23426C7.0562 6.58024 7.34396 7.06174 7.45266 7.59758H5.15625C5.03193 7.59758 4.9127 7.64761 4.82479 7.73666C4.73689 7.8257 4.6875 7.94648 4.6875 8.07241C4.6875 8.19834 4.73689 8.31912 4.82479 8.40816C4.9127 8.49721 5.03193 8.54724 5.15625 8.54724Z" fill="white"/>
</svg>
