<svg width="26" height="26" viewBox="0 0 26 26" fill="none" xmlns="http://www.w3.org/2000/svg">
<path d="M3 18V23H8V25.5H0.5V18H3ZM25.5 18V25.5H18V23H23V18H25.5ZM7.375 6.75C7.37502 8.0248 7.80788 9.26183 8.60269 10.2585C9.3975 11.2552 10.5072 11.9525 11.75 12.2362V19.25H14.25L14.2513 12.235C15.4936 11.9511 16.6029 11.2539 17.3974 10.2574C18.192 9.26102 18.6248 8.02442 18.625 6.75H21.125C21.1253 8.23674 20.7176 9.69506 19.9464 10.9661C19.1752 12.2372 18.07 13.2723 16.7513 13.9587L16.75 21.75H9.25V13.96C7.93078 13.2737 6.82522 12.2384 6.05378 10.9671C5.28234 9.69575 4.87461 8.23708 4.875 6.75H7.375ZM13 4.25C13.8288 4.25 14.6237 4.57924 15.2097 5.16529C15.7958 5.75134 16.125 6.5462 16.125 7.375C16.125 8.2038 15.7958 8.99866 15.2097 9.58471C14.6237 10.1708 13.8288 10.5 13 10.5C12.1712 10.5 11.3763 10.1708 10.7903 9.58471C10.2042 8.99866 9.875 8.2038 9.875 7.375C9.875 6.5462 10.2042 5.75134 10.7903 5.16529C11.3763 4.57924 12.1712 4.25 13 4.25ZM8 0.5V3L3 2.99875V8H0.5V0.5H8ZM25.5 0.5V8H23V3H18V0.5H25.5Z" fill="white"/>
</svg>
