<svg width="26" height="26" viewBox="0 0 26 26" fill="none" xmlns="http://www.w3.org/2000/svg">
<path d="M20.5387 18.7713L25.8925 24.1238L24.1238 25.8925L18.7713 20.5387C16.7797 22.1353 14.3025 23.0036 11.75 23C5.54 23 0.5 17.96 0.5 11.75C0.5 5.54 5.54 0.5 11.75 0.5C17.96 0.5 23 5.54 23 11.75C23.0036 14.3025 22.1353 16.7797 20.5387 18.7713ZM18.0312 17.8438C19.6176 16.2124 20.5036 14.0255 20.5 11.75C20.5 6.915 16.5837 3 11.75 3C6.915 3 3 6.915 3 11.75C3 16.5837 6.915 20.5 11.75 20.5C14.0255 20.5036 16.2124 19.6176 17.8438 18.0312L18.0312 17.8438ZM13.2225 6.97C12.8539 7.1365 12.5312 7.38994 12.2821 7.70857C12.033 8.0272 11.8649 8.40151 11.7923 8.79939C11.7197 9.19726 11.7447 9.60682 11.8651 9.99292C11.9856 10.379 12.1979 10.7301 12.4839 11.0161C12.7699 11.3021 13.121 11.5144 13.5071 11.6349C13.8932 11.7553 14.3027 11.7803 14.7006 11.7077C15.0985 11.6351 15.4728 11.467 15.7914 11.2179C16.1101 10.9688 16.3635 10.6461 16.53 10.2775C16.8585 11.3445 16.8204 12.4908 16.4218 13.5337C16.0233 14.5766 15.2871 15.456 14.3307 16.032C13.3743 16.6079 12.2526 16.8472 11.1444 16.7117C10.0362 16.5762 9.00525 16.0737 8.2158 15.2842C7.42635 14.4948 6.92383 13.4638 6.78831 12.3556C6.65278 11.2474 6.89206 10.1257 7.46801 9.1693C8.04395 8.21288 8.92343 7.47673 9.96631 7.07815C11.0092 6.67958 12.1555 6.6415 13.2225 6.97Z" fill="white"/>
</svg>
