<svg width="20" height="20" viewBox="0 0 20 20" fill="none" xmlns="http://www.w3.org/2000/svg">
<path d="M10 0C4.4771 0 0 4.4771 0 10C0 15.5229 4.4771 20.0003 10 20.0003C15.5229 20.0003 20 15.5232 20 10.0003C20 8.68705 19.7414 7.38666 19.2389 6.17337C18.7364 4.96008 17.9998 3.85765 17.0712 2.92904C16.1426 2.00042 15.0402 1.2638 13.8269 0.761233C12.6136 0.258667 11.3132 -5.72803e-10 10 0V0ZM10 18.5998C5.2506 18.5998 1.40051 14.7497 1.40051 10.0003C1.40051 5.25089 5.2506 1.40051 10 1.40051C14.7494 1.40051 18.5995 5.25089 18.5995 10.0003C18.5995 12.281 17.6935 14.4683 16.0808 16.081C14.468 17.6938 12.2807 18.5998 10 18.5998Z" fill="white" fill-opacity="0.87"/>
<path d="M14.727 10.0003C14.7482 10.0894 14.7482 10.1823 14.727 10.2714C14.6975 10.3374 14.6536 10.3959 14.5985 10.4427L11.4865 13.5261C11.3527 13.6515 11.1754 13.7201 10.9921 13.7172C10.8087 13.7143 10.6337 13.6402 10.5039 13.5106C10.3742 13.3811 10.2999 13.2061 10.2968 13.0227C10.2937 12.8394 10.362 12.662 10.4873 12.5281L12.2859 10.7153H5.98984C5.89489 10.7172 5.80051 10.7002 5.71223 10.6652C5.62395 10.6302 5.54354 10.5779 5.47571 10.5115C5.40788 10.445 5.354 10.3657 5.31721 10.2781C5.28042 10.1906 5.26147 10.0966 5.26147 10.0016C5.26147 9.90665 5.28042 9.81264 5.31721 9.72509C5.354 9.63754 5.40788 9.55821 5.47571 9.49174C5.54354 9.42528 5.62395 9.37302 5.71223 9.33802C5.80051 9.30302 5.89489 9.28599 5.98984 9.28792H12.2859L10.4445 7.47511C10.3127 7.34239 10.2389 7.1629 10.2391 6.97589C10.2393 6.78888 10.3136 6.60957 10.4457 6.47718C10.5778 6.34478 10.7569 6.27008 10.9439 6.26941C11.1309 6.26874 11.3106 6.34216 11.4436 6.4736L14.47 9.48609C14.5286 9.53532 14.573 9.59937 14.5985 9.67157C14.6741 9.76522 14.7189 9.87991 14.727 9.99999V10.0003Z" fill="white" fill-opacity="0.87"/>
</svg>
