<svg width="252" height="252" viewBox="0 0 252 252" fill="none" xmlns="http://www.w3.org/2000/svg">
<circle cx="127.5" cy="126.5" r="98.5" fill="#4894FE" fill-opacity="0.38"/>
<g filter="url(#filter0_f_8_62)">
<circle cx="126" cy="126" r="111" fill="#4894FE" fill-opacity="0.38"/>
</g>
<path d="M215 126.5C215 174.825 175.825 214 127.5 214C79.1751 214 40 174.825 40 126.5C40 78.1751 79.1751 39 127.5 39C175.825 39 215 78.1751 215 126.5Z" fill="#4894FE"/>
<path d="M101.448 163.584L99.368 164.096V160.848H101.448V159.728H99.368V156.656H98.216V159.728H95.864V160.848H98.216V164.368C97.256 164.592 96.376 164.784 95.672 164.944L96.008 166.112C96.664 165.936 97.416 165.744 98.216 165.536V169.76C98.216 169.984 98.12 170.064 97.896 170.064C97.704 170.064 97.016 170.08 96.248 170.048C96.408 170.368 96.584 170.832 96.616 171.152C97.72 171.152 98.376 171.12 98.792 170.928C99.208 170.752 99.368 170.432 99.368 169.744V165.248C100.104 165.056 100.856 164.848 101.592 164.656L101.448 163.584ZM101.736 158.112V159.216H108.264V163.168H102.12V164.336H108.264V168.896H101.624V170.016H108.264V171.184H109.416V158.112H101.736ZM115.816 168.144H113.944V163.424H115.816V168.144ZM111.864 158.56H113.816C113.384 160.992 112.648 163.248 111.528 164.752C111.72 165.056 111.992 165.728 112.072 166.016C112.376 165.632 112.648 165.2 112.904 164.736V170.512H113.944V169.216H116.872V162.368H113.944C114.36 161.184 114.696 159.888 114.936 158.56H117.32V157.456H111.864V158.56ZM123.656 166.704H117.576V167.776H123.656V166.704ZM124.008 163.584C124.28 161.616 124.52 159.248 124.648 157.6L123.816 157.504L123.64 157.568H118.104V158.656H123.432C123.304 160.048 123.096 161.984 122.904 163.584H119.576C119.72 162.4 119.88 160.928 119.96 159.712L118.856 159.648C118.744 161.2 118.536 163.312 118.328 164.608H124.776C124.472 168.112 124.136 169.52 123.72 169.92C123.56 170.08 123.384 170.112 123.112 170.112C122.824 170.112 122.12 170.112 121.336 170.016C121.528 170.336 121.64 170.784 121.672 171.12C122.44 171.152 123.16 171.168 123.576 171.12C124.056 171.104 124.344 170.976 124.664 170.64C125.224 170.064 125.592 168.4 125.944 164.112C125.96 163.952 125.976 163.584 125.976 163.584H124.008ZM138.696 158.864H140.184V160.08H138.696V158.864ZM140.184 162.256H138.696V161.008H140.184V162.256ZM137.672 162.256H135.592V163.168H137.672V164.336H135.32V165.312H137.672V166.56H134.92V167.536H137.672V169.456H138.696V167.536H141.96V166.56H138.696V165.312H141.448V164.336H138.696V163.168H141.128V161.008H142.248V160.08H141.128V157.952H138.696V156.624H137.672V157.952H135.592V158.864H137.672V160.08H134.856V161.008H137.672V162.256ZM130.504 156.656C129.88 158.992 128.84 161.28 127.608 162.768C127.8 163.072 128.12 163.712 128.2 163.984C128.616 163.456 129 162.88 129.368 162.24V171.2H130.424V160.144C130.856 159.12 131.256 158.032 131.56 156.944L130.504 156.656ZM134.344 162.416L134.232 162.432H132.936C133.544 161.056 134.264 159.232 134.808 157.776H131.576V158.816H133.336C132.76 160.4 132.04 162.176 131.464 163.392H133.88C133.704 164.864 133.448 166.128 133.064 167.152C132.68 166.528 132.344 165.776 132.088 164.864L131.224 165.216C131.592 166.432 132.072 167.408 132.632 168.176C132.12 169.184 131.464 169.952 130.664 170.48C130.872 170.624 131.272 170.992 131.432 171.232C132.168 170.704 132.808 169.968 133.336 169.008C134.952 170.624 137.112 171.008 139.544 171.008H141.96C141.992 170.72 142.168 170.256 142.328 170C141.736 170.016 140.04 170.016 139.608 170.016C137.368 170.016 135.288 169.664 133.768 168.064C134.376 166.656 134.76 164.832 134.968 162.56L134.344 162.416ZM147.576 165.456V163.904H154.216V165.216L153.944 165.456H147.576ZM154.216 159.232V160.624H147.576V159.232H154.216ZM147.576 161.536H154.216V162.992H147.576V161.536ZM156.952 162.192C156.488 162.88 155.944 163.52 155.368 164.144V158.176H150.936C151.192 157.744 151.448 157.248 151.688 156.784L150.344 156.576C150.2 157.04 149.944 157.648 149.688 158.176H146.408V165.456H144.312V166.496H152.584C150.056 168.24 147.016 169.52 143.736 170.368C143.96 170.592 144.328 171.088 144.456 171.36C148.056 170.288 151.448 168.768 154.216 166.608V169.536C154.216 169.84 154.104 169.952 153.768 169.984C153.416 169.984 152.216 170 150.952 169.952C151.128 170.288 151.304 170.816 151.368 171.152C152.984 171.152 154.008 171.12 154.6 170.928C155.176 170.72 155.368 170.352 155.368 169.536V165.648C156.344 164.752 157.224 163.776 157.976 162.688L156.952 162.192Z" fill="white"/>
<path d="M101.875 102.125C102.875 102.125 103.75 101.25 103.75 100.25V87.875C103.75 86.125 105.125 84.75 106.875 84.75H119.25C120.25 84.75 121.125 83.875 121.125 82.875C121.125 81.875 120.25 81 119.25 81H106.875C103.125 81 100 84.125 100 87.875V100.25C100 101.25 100.875 102.125 101.875 102.125ZM146.875 81H134.5C133.5 81 132.625 81.875 132.625 82.875C132.625 83.875 133.5 84.75 134.5 84.75H146.875C148.625 84.75 150 86.125 150 87.875V100.25C150 101.25 150.875 102.125 151.875 102.125C152.875 102.125 153.75 101.25 153.75 100.25V87.875C153.75 84.125 150.625 81 146.875 81ZM151.875 113.625C150.875 113.625 150 114.5 150 115.5V127.875C150 129.625 148.625 131 146.875 131H134.5C133.5 131 132.625 131.875 132.625 132.875C132.625 133.875 133.5 134.75 134.5 134.75H146.875C150.625 134.75 153.75 131.625 153.75 127.875V115.5C153.75 114.5 152.875 113.625 151.875 113.625ZM119.25 131H106.875C105.125 131 103.75 129.625 103.75 127.875V115.5C103.75 114.5 102.875 113.625 101.875 113.625C100.875 113.625 100 114.5 100 115.5V127.875C100 131.625 103.125 134.75 106.875 134.75H119.25C120.25 134.75 121.125 133.875 121.125 132.875C121.125 131.875 120.25 131 119.25 131ZM151.875 106H101.875C100.875 106 100 106.875 100 107.875C100 108.875 100.875 109.75 101.875 109.75H151.875C152.875 109.75 153.75 108.875 153.75 107.875C153.75 106.875 152.875 106 151.875 106Z" fill="white"/>
<defs>
<filter id="filter0_f_8_62" x="0" y="0" width="252" height="252" filterUnits="userSpaceOnUse" color-interpolation-filters="sRGB">
<feFlood flood-opacity="0" result="BackgroundImageFix"/>
<feBlend mode="normal" in="SourceGraphic" in2="BackgroundImageFix" result="shape"/>
<feGaussianBlur stdDeviation="7.5" result="effect1_foregroundBlur_8_62"/>
</filter>
</defs>
</svg>
