<svg width="17" height="15" viewBox="0 0 17 15" fill="none" xmlns="http://www.w3.org/2000/svg">
<path d="M6.06471 9.16973C5.98812 9.2084 5.90971 9.22686 5.81451 9.22686C5.60162 9.22686 5.42797 9.1126 5.33084 8.94121L5.29166 8.86574L3.76615 5.58619C3.74748 5.54752 3.74748 5.5107 3.74748 5.47203C3.74748 5.3191 3.86326 5.20484 4.01824 5.20484C4.07615 5.20484 4.13402 5.22328 4.19193 5.26195L5.98812 6.52035C6.12258 6.59582 6.27758 6.65297 6.45117 6.65297C6.54828 6.65297 6.64355 6.63451 6.74066 6.59582L15.1636 2.89813C13.6568 1.14414 11.1659 0 8.34457 0C3.74748 0 0 3.06949 0 6.86121C0 8.91918 1.12033 10.7873 2.8774 12.0457C3.01178 12.1415 3.10889 12.3129 3.10889 12.4842C3.10889 12.5413 3.0902 12.5985 3.06971 12.6556C2.93531 13.1696 2.70191 14.0098 2.70191 14.0467C2.6832 14.1037 2.6626 14.1793 2.6626 14.2566C2.6626 14.4095 2.7784 14.5238 2.9334 14.5238C2.99127 14.5238 3.04918 14.5054 3.08838 14.4667L4.90326 13.4184C5.03773 13.3428 5.19271 13.2857 5.34771 13.2857C5.4242 13.2857 5.52133 13.3041 5.59791 13.3243C6.44744 13.5713 7.37549 13.7058 8.32213 13.7058C12.9192 13.7058 16.6667 10.6363 16.6667 6.84457C16.6667 5.70043 16.3194 4.61521 15.72 3.66092L6.12258 9.13103L6.06471 9.16971V9.16973Z" fill="#09BB07"/>
</svg>
