<svg width="30" height="28" viewBox="0 0 30 28" fill="none" xmlns="http://www.w3.org/2000/svg">
<path d="M15 0.625L20.2825 8.35375L29.2663 10.99L23.5475 18.4025L23.8162 27.76L15 24.6125L6.18375 27.76L6.4525 18.4025L0.733749 10.99L9.7175 8.35375L15 0.625ZM15 5.055L11.2775 10.5025L4.94625 12.3588L8.9775 17.5812L8.78625 24.175L15 21.9575L21.2125 24.175L21.0225 17.5812L25.0525 12.3588L18.7225 10.5025L15 5.055ZM12.5 15C12.5 15.663 12.7634 16.2989 13.2322 16.7678C13.7011 17.2366 14.337 17.5 15 17.5C15.663 17.5 16.2989 17.2366 16.7678 16.7678C17.2366 16.2989 17.5 15.663 17.5 15H20C20 16.3261 19.4732 17.5979 18.5355 18.5355C17.5979 19.4732 16.3261 20 15 20C13.6739 20 12.4021 19.4732 11.4645 18.5355C10.5268 17.5979 10 16.3261 10 15H12.5Z" fill="white"/>
</svg>
